<mxfile host="Electron" modified="2024-05-22T08:29:02.298Z" agent="Mozilla/5.0 (Windows NT 10.0; Win64; x64) AppleWebKit/537.36 (KHTML, like Gecko) draw.io/23.1.5 Chrome/120.0.6099.109 Electron/28.1.0 Safari/537.36" etag="2oF-vIKAsQMmncNsjvlw" version="23.1.5" type="device">
  <diagram name="Strona-1" id="qhjlecZrfErG3EmEXIc5">
    <mxGraphModel dx="647" dy="554" grid="1" gridSize="10" guides="1" tooltips="1" connect="1" arrows="1" fold="1" page="1" pageScale="1" pageWidth="700" pageHeight="300" math="0" shadow="0">
      <root>
        <mxCell id="0" />
        <mxCell id="1" parent="0" />
        <mxCell id="RnLOs24wBo_rU6qCkj2a-37" value="" style="rounded=0;whiteSpace=wrap;html=1;dashed=1;dashPattern=12 12;" parent="1" vertex="1">
          <mxGeometry x="95" width="295" height="270" as="geometry" />
        </mxCell>
        <mxCell id="RnLOs24wBo_rU6qCkj2a-3" value="&lt;i&gt;start&lt;br&gt;&lt;/i&gt;&lt;div&gt;addr = start_addr&lt;/div&gt;&lt;div&gt;max1 = 0&lt;/div&gt;&lt;div&gt;min1 = 16&#39;h7FFF&lt;/div&gt;&lt;div&gt;max2 = &#39;b0&lt;/div&gt;&lt;div&gt;min2 = 16&#39;h7FFF&lt;/div&gt;&lt;div&gt;counter = &#39;b0;&lt;/div&gt;" style="edgeStyle=orthogonalEdgeStyle;rounded=0;orthogonalLoop=1;jettySize=auto;html=1;exitX=1;exitY=0.5;exitDx=0;exitDy=0;entryX=0;entryY=0.5;entryDx=0;entryDy=0;" parent="1" source="nLh6Hw3wDIEMh4GKDwiy-4" target="RnLOs24wBo_rU6qCkj2a-1" edge="1">
          <mxGeometry y="-55" relative="1" as="geometry">
            <mxPoint as="offset" />
          </mxGeometry>
        </mxCell>
        <mxCell id="nLh6Hw3wDIEMh4GKDwiy-4" value="IDLE" style="ellipse;whiteSpace=wrap;html=1;" parent="1" vertex="1">
          <mxGeometry x="20" y="50" width="50" height="50" as="geometry" />
        </mxCell>
        <mxCell id="RnLOs24wBo_rU6qCkj2a-7" style="edgeStyle=orthogonalEdgeStyle;rounded=0;orthogonalLoop=1;jettySize=auto;html=1;exitX=1;exitY=0.5;exitDx=0;exitDy=0;entryX=0;entryY=0.5;entryDx=0;entryDy=0;" parent="1" source="RnLOs24wBo_rU6qCkj2a-1" target="RnLOs24wBo_rU6qCkj2a-5" edge="1">
          <mxGeometry relative="1" as="geometry" />
        </mxCell>
        <mxCell id="RnLOs24wBo_rU6qCkj2a-24" value="&lt;div&gt;dma_addr&amp;nbsp;&lt;/div&gt;&lt;div&gt;= addr&lt;/div&gt;&lt;div&gt;dma_read = 1&lt;span style=&quot;&quot;&gt;&lt;/span&gt;&lt;/div&gt;" style="edgeLabel;html=1;align=center;verticalAlign=middle;resizable=0;points=[];" parent="RnLOs24wBo_rU6qCkj2a-7" vertex="1" connectable="0">
          <mxGeometry x="-0.1009" y="-1" relative="1" as="geometry">
            <mxPoint x="2" y="34" as="offset" />
          </mxGeometry>
        </mxCell>
        <mxCell id="RnLOs24wBo_rU6qCkj2a-1" value="SEND1" style="ellipse;whiteSpace=wrap;html=1;" parent="1" vertex="1">
          <mxGeometry x="130" y="50" width="50" height="50" as="geometry" />
        </mxCell>
        <mxCell id="RnLOs24wBo_rU6qCkj2a-9" style="edgeStyle=orthogonalEdgeStyle;rounded=0;orthogonalLoop=1;jettySize=auto;html=1;exitX=1;exitY=0.5;exitDx=0;exitDy=0;" parent="1" source="RnLOs24wBo_rU6qCkj2a-5" target="RnLOs24wBo_rU6qCkj2a-8" edge="1">
          <mxGeometry relative="1" as="geometry" />
        </mxCell>
        <mxCell id="RnLOs24wBo_rU6qCkj2a-25" value="&lt;i&gt;dma_rdy&lt;/i&gt;&lt;div&gt;mem1 = |dma_readdata|[31:16]&lt;br&gt;&lt;/div&gt;&lt;div&gt;mem2 = |dma_readdata|[15 :0]&lt;br&gt;&lt;/div&gt;" style="edgeLabel;html=1;align=center;verticalAlign=middle;resizable=0;points=[];" parent="RnLOs24wBo_rU6qCkj2a-9" vertex="1" connectable="0">
          <mxGeometry x="-0.4956" relative="1" as="geometry">
            <mxPoint y="-45" as="offset" />
          </mxGeometry>
        </mxCell>
        <mxCell id="RnLOs24wBo_rU6qCkj2a-5" value="READ1" style="ellipse;whiteSpace=wrap;html=1;" parent="1" vertex="1">
          <mxGeometry x="220" y="50" width="50" height="50" as="geometry" />
        </mxCell>
        <mxCell id="RnLOs24wBo_rU6qCkj2a-10" style="edgeStyle=orthogonalEdgeStyle;rounded=0;orthogonalLoop=1;jettySize=auto;html=1;exitX=0.5;exitY=1;exitDx=0;exitDy=0;entryX=0.5;entryY=1;entryDx=0;entryDy=0;curved=1;" parent="1" source="RnLOs24wBo_rU6qCkj2a-8" target="RnLOs24wBo_rU6qCkj2a-1" edge="1">
          <mxGeometry relative="1" as="geometry">
            <Array as="points">
              <mxPoint x="260" y="100" />
              <mxPoint x="260" y="160" />
              <mxPoint x="155" y="160" />
            </Array>
          </mxGeometry>
        </mxCell>
        <mxCell id="RnLOs24wBo_rU6qCkj2a-30" value="&lt;i&gt;&amp;nbsp;addr != stop_addr&lt;br&gt;&lt;/i&gt;addr += 4&lt;div&gt;&lt;br/&gt;&lt;/div&gt;" style="edgeLabel;html=1;align=center;verticalAlign=middle;resizable=0;points=[];" parent="RnLOs24wBo_rU6qCkj2a-10" vertex="1" connectable="0">
          <mxGeometry x="0.1696" y="-3" relative="1" as="geometry">
            <mxPoint x="-10" y="33" as="offset" />
          </mxGeometry>
        </mxCell>
        <mxCell id="RnLOs24wBo_rU6qCkj2a-22" style="edgeStyle=orthogonalEdgeStyle;rounded=0;orthogonalLoop=1;jettySize=auto;html=1;exitX=1;exitY=0.5;exitDx=0;exitDy=0;entryX=0;entryY=0.5;entryDx=0;entryDy=0;" parent="1" source="RnLOs24wBo_rU6qCkj2a-8" target="RnLOs24wBo_rU6qCkj2a-17" edge="1">
          <mxGeometry relative="1" as="geometry" />
        </mxCell>
        <mxCell id="RnLOs24wBo_rU6qCkj2a-31" value="&lt;i&gt;addr ==&amp;nbsp;&lt;/i&gt;&lt;i&gt;stop_addr&lt;/i&gt;&lt;br&gt;addr =&amp;nbsp;&lt;div&gt;start_addr&lt;br&gt;&lt;/div&gt;" style="edgeLabel;html=1;align=center;verticalAlign=middle;resizable=0;points=[];" parent="RnLOs24wBo_rU6qCkj2a-22" vertex="1" connectable="0">
          <mxGeometry x="-0.3304" y="1" relative="1" as="geometry">
            <mxPoint x="23" y="-24" as="offset" />
          </mxGeometry>
        </mxCell>
        <mxCell id="RnLOs24wBo_rU6qCkj2a-8" value="CHECK1" style="ellipse;whiteSpace=wrap;html=1;" parent="1" vertex="1">
          <mxGeometry x="310" y="50" width="50" height="50" as="geometry" />
        </mxCell>
        <mxCell id="RnLOs24wBo_rU6qCkj2a-16" style="edgeStyle=orthogonalEdgeStyle;rounded=0;orthogonalLoop=1;jettySize=auto;html=1;exitX=1;exitY=0.5;exitDx=0;exitDy=0;entryX=0;entryY=0.5;entryDx=0;entryDy=0;" parent="1" source="RnLOs24wBo_rU6qCkj2a-17" target="RnLOs24wBo_rU6qCkj2a-19" edge="1">
          <mxGeometry relative="1" as="geometry" />
        </mxCell>
        <mxCell id="RnLOs24wBo_rU6qCkj2a-28" value="&lt;div&gt;dma_addr = addr&lt;/div&gt;&lt;div&gt;dma_read = 1&lt;/div&gt;" style="edgeLabel;html=1;align=center;verticalAlign=middle;resizable=0;points=[];" parent="RnLOs24wBo_rU6qCkj2a-16" vertex="1" connectable="0">
          <mxGeometry x="-0.1272" relative="1" as="geometry">
            <mxPoint x="3" y="35" as="offset" />
          </mxGeometry>
        </mxCell>
        <mxCell id="RnLOs24wBo_rU6qCkj2a-17" value="SEND2" style="ellipse;whiteSpace=wrap;html=1;" parent="1" vertex="1">
          <mxGeometry x="440" y="50" width="50" height="50" as="geometry" />
        </mxCell>
        <mxCell id="RnLOs24wBo_rU6qCkj2a-18" style="edgeStyle=orthogonalEdgeStyle;rounded=0;orthogonalLoop=1;jettySize=auto;html=1;exitX=1;exitY=0.5;exitDx=0;exitDy=0;" parent="1" source="RnLOs24wBo_rU6qCkj2a-19" target="RnLOs24wBo_rU6qCkj2a-20" edge="1">
          <mxGeometry relative="1" as="geometry" />
        </mxCell>
        <mxCell id="RnLOs24wBo_rU6qCkj2a-26" value="&lt;i&gt;dma_rdy&lt;/i&gt;&lt;div&gt;mem1 = dma_readdata[31:16]&lt;br&gt;&lt;/div&gt;&lt;div&gt;mem2 = dma_readdata[15:0]&lt;/div&gt;" style="edgeLabel;html=1;align=center;verticalAlign=middle;resizable=0;points=[];" parent="RnLOs24wBo_rU6qCkj2a-18" vertex="1" connectable="0">
          <mxGeometry x="-0.364" relative="1" as="geometry">
            <mxPoint x="7" y="-45" as="offset" />
          </mxGeometry>
        </mxCell>
        <mxCell id="RnLOs24wBo_rU6qCkj2a-19" value="READ2" style="ellipse;whiteSpace=wrap;html=1;" parent="1" vertex="1">
          <mxGeometry x="530" y="50" width="50" height="50" as="geometry" />
        </mxCell>
        <mxCell id="RnLOs24wBo_rU6qCkj2a-21" style="edgeStyle=orthogonalEdgeStyle;rounded=0;orthogonalLoop=1;jettySize=auto;html=1;exitX=-0.061;exitY=0.49;exitDx=0;exitDy=0;entryX=0.5;entryY=1;entryDx=0;entryDy=0;curved=1;exitPerimeter=0;" parent="1" source="RnLOs24wBo_rU6qCkj2a-34" target="RnLOs24wBo_rU6qCkj2a-17" edge="1">
          <mxGeometry relative="1" as="geometry">
            <Array as="points">
              <mxPoint x="510" y="174" />
              <mxPoint x="510" y="160" />
              <mxPoint x="465" y="160" />
            </Array>
          </mxGeometry>
        </mxCell>
        <mxCell id="RnLOs24wBo_rU6qCkj2a-33" value="&lt;i&gt;addr != stop_addr&lt;br&gt;&lt;/i&gt;addr += 4" style="edgeLabel;html=1;align=center;verticalAlign=middle;resizable=0;points=[];" parent="RnLOs24wBo_rU6qCkj2a-21" vertex="1" connectable="0">
          <mxGeometry x="0.3532" y="-3" relative="1" as="geometry">
            <mxPoint x="8" y="33" as="offset" />
          </mxGeometry>
        </mxCell>
        <mxCell id="RnLOs24wBo_rU6qCkj2a-35" style="edgeStyle=orthogonalEdgeStyle;rounded=0;orthogonalLoop=1;jettySize=auto;html=1;exitX=0.5;exitY=1;exitDx=0;exitDy=0;" parent="1" source="RnLOs24wBo_rU6qCkj2a-20" target="RnLOs24wBo_rU6qCkj2a-34" edge="1">
          <mxGeometry relative="1" as="geometry" />
        </mxCell>
        <mxCell id="RnLOs24wBo_rU6qCkj2a-20" value="TRANS" style="ellipse;whiteSpace=wrap;html=1;" parent="1" vertex="1">
          <mxGeometry x="620" y="50" width="50" height="50" as="geometry" />
        </mxCell>
        <mxCell id="RnLOs24wBo_rU6qCkj2a-23" style="edgeStyle=orthogonalEdgeStyle;rounded=0;orthogonalLoop=1;jettySize=auto;html=1;exitX=0.5;exitY=1;exitDx=0;exitDy=0;entryX=0.5;entryY=1;entryDx=0;entryDy=0;curved=1;" parent="1" source="RnLOs24wBo_rU6qCkj2a-34" target="nLh6Hw3wDIEMh4GKDwiy-4" edge="1">
          <mxGeometry relative="1" as="geometry">
            <Array as="points">
              <mxPoint x="625" y="290" />
              <mxPoint x="20" y="290" />
              <mxPoint x="20" y="120" />
              <mxPoint x="45" y="120" />
            </Array>
          </mxGeometry>
        </mxCell>
        <mxCell id="RnLOs24wBo_rU6qCkj2a-32" value="&lt;i&gt;addr ==&amp;nbsp;&lt;/i&gt;&lt;i&gt;stop_addr&lt;/i&gt;" style="edgeLabel;html=1;align=center;verticalAlign=middle;resizable=0;points=[];" parent="RnLOs24wBo_rU6qCkj2a-23" vertex="1" connectable="0">
          <mxGeometry x="-0.7082" y="-5" relative="1" as="geometry">
            <mxPoint x="11" y="-5" as="offset" />
          </mxGeometry>
        </mxCell>
        <mxCell id="RnLOs24wBo_rU6qCkj2a-29" value="&lt;div&gt;&lt;i&gt;max &amp;lt; mem1&lt;/i&gt;&lt;/div&gt;&lt;div&gt;max = mem1&lt;/div&gt;&lt;div&gt;&lt;br&gt;&lt;/div&gt;&lt;div&gt;&lt;div&gt;&lt;i&gt;max &amp;lt; mem2&lt;/i&gt;&lt;/div&gt;&lt;div&gt;max = mem2&lt;/div&gt;&lt;/div&gt;" style="text;html=1;align=center;verticalAlign=middle;whiteSpace=wrap;rounded=0;" parent="1" vertex="1">
          <mxGeometry x="300" y="100" width="80" height="80" as="geometry" />
        </mxCell>
        <mxCell id="RnLOs24wBo_rU6qCkj2a-34" value="CHECK" style="ellipse;whiteSpace=wrap;html=1;" parent="1" vertex="1">
          <mxGeometry x="620" y="150" width="50" height="50" as="geometry" />
        </mxCell>
        <mxCell id="RnLOs24wBo_rU6qCkj2a-36" value="Avalon Stream&lt;br&gt;-&amp;gt;&amp;nbsp;" style="rounded=0;whiteSpace=wrap;html=1;fillColor=#1ba1e2;fontColor=#ffffff;strokeColor=#006EAF;" parent="1" vertex="1">
          <mxGeometry x="590" y="90" width="100" height="40" as="geometry" />
        </mxCell>
        <mxCell id="RnLOs24wBo_rU6qCkj2a-38" value="Find Min/Max" style="text;html=1;align=center;verticalAlign=middle;whiteSpace=wrap;rounded=0;" parent="1" vertex="1">
          <mxGeometry x="220" y="230" width="60" height="30" as="geometry" />
        </mxCell>
      </root>
    </mxGraphModel>
  </diagram>
</mxfile>
